<svg xmlns="http://www.w3.org/2000/svg" version="1.1" xmlns:xlink="http://www.w3.org/1999/xlink" xmlns:svgjs="http://svgjs.dev/svgjs" width="1920" height="1080" preserveAspectRatio="none" viewBox="0 0 1920 1080"><g mask="url(&quot;#SvgjsMask1054&quot;)" fill="none"><rect width="1920" height="1080" x="0" y="0" fill="#0e2a47"></rect><use xlink:href="#SvgjsG1059" transform="translate(0, 0)" fill="#0f457b"></use><use xlink:href="#SvgjsG1059" transform="translate(0, 960)" fill="#0f457b"></use><use xlink:href="#SvgjsG1059" transform="translate(960, 0)" fill="#0f457b"></use><use xlink:href="#SvgjsG1059" transform="translate(960, 960)" fill="#0f457b"></use></g><defs><mask id="SvgjsMask1054"><rect width="1920" height="1080" fill="#ffffff"></rect></mask><g id="SvgjsG1058"><path d="M3.474 10.969C3.474 7.665 8.077 0.361 8.077 0.361s4.602 7.305 4.602 10.608c0 2.247-1.506 4.771-4.602 4.771-3.095 0-4.603-2.524-4.603-4.771z" fill-rule="evenodd"></path></g><g id="SvgjsG1055"><path d="M7.713 15.485C3.459 15.485 0 12.025 0 7.768 0 3.513 3.459 0.051 7.713 0.051S15.432 3.513 15.432 7.768c0 4.257-3.465 7.716-7.719 7.717z m0-1.91c3.201 0 5.81-2.604 5.81-5.809 0-3.199-2.61-5.807-5.81-5.807-3.202 0-5.804 2.609-5.804 5.807-0.001 3.206 2.602 5.809 5.804 5.809z"></path><path d="M7.753 8.787a0.574 0.574 0 0 1-0.554-0.042 0.578 0.578 0 0 1-0.259-0.399L6.931 3.862a0.58 0.58 0 0 1 1.162 0v3.478l2.975-1.4a0.578 0.578 0 0 1 0.773 0.275c0.138 0.292 0.011 0.637-0.276 0.774l-3.81 1.798z"></path></g><g id="SvgjsG1056"><path d="M11.852 2.71c-0.295 0.29-0.694 0.403-1.135 0.403-0.561 0-1.071-0.231-1.365-0.669-0.291 0.446-0.803 0.669-1.371 0.669-0.56 0-1.066-0.236-1.358-0.674-0.291 0.452-0.803 0.674-1.378 0.674-0.414 0-0.795-0.094-1.081-0.352l-0.217-1.574c0.297 0.397 0.769 0.654 1.298 0.654 0.574 0 1.087-0.285 1.378-0.736 0.293 0.437 0.798 0.736 1.359 0.736 0.568 0 1.081-0.285 1.372-0.731 0.293 0.437 0.803 0.731 1.365 0.731 0.572 0 1.078-0.298 1.367-0.749l-0.231 1.617z"></path><path d="M12.267 16L14.746 0 13.077 0.016 10.822 14.313H5.204L2.949 0.016 1.28 0l2.479 16H12.267z"></path></g><g id="SvgjsG1057"><path d="M9.772 3.249c0.894 0 1.621-0.726 1.625-1.624C11.392 0.73 10.666 0.003 9.771 0c-0.898 0.003-1.624 0.73-1.624 1.625 0 0.898 0.726 1.624 1.625 1.624zM6.045 1.946c0.919-0.474 2.204 0.395 2.215 1.347v3.094l1.469 1.626c0.675 0.756-0.393 1.797-1.139 1.042L6.931 7.221c-0.107-0.102-0.185-0.223-0.183-0.504v-1.477l-2.902 1.563v7.863c0.001 1.776-2.405 1.776-2.406 0.017V5.36c0.002-0.519 0.207-1.025 0.72-1.32L6.045 1.946z"></path><path d="M12.066 9.922h2.554V5.274l-5.143-0.009c-0.658 0-0.906 0.745-0.496 1.217l3.084 3.44z m-1.478-4.865a0.205 0.205 0 0 0 0.2-0.2 0.205 0.205 0 0 0-0.2-0.2c-0.111 0.002-0.2 0.09-0.2 0.2s0.089 0.199 0.2 0.2z m0.53 0.034a0.203 0.203 0 0 0 0.2-0.199 0.203 0.203 0 0 0-0.2-0.2 0.203 0.203 0 0 0-0.2 0.2c0.002 0.109 0.09 0.198 0.2 0.199z m0.035-0.59c0.109 0.003 0.197-0.086 0.2-0.192-0.003-0.114-0.091-0.202-0.2-0.2-0.11-0.002-0.199 0.086-0.2 0.2a0.195 0.195 0 0 0 0.2 0.192z m-0.53-0.035c0.109 0.001 0.198-0.088 0.2-0.2-0.002-0.107-0.091-0.196-0.2-0.2-0.11 0.004-0.198 0.093-0.199 0.2 0.001 0.112 0.09 0.201 0.199 0.2z m0.174-0.539c0.113-0.004 0.206-0.098 0.209-0.208-0.002-0.118-0.096-0.211-0.209-0.208-0.117-0.003-0.21 0.09-0.209 0.209-0.002 0.112 0.092 0.205 0.209 0.209z m0.643 0.105c0.116-0.004 0.209-0.098 0.209-0.209 0.001-0.118-0.093-0.211-0.209-0.208-0.114-0.003-0.206 0.09-0.208 0.208 0.002 0.112 0.094 0.205 0.21 0.209z m-0.226-0.54c0.118-0.002 0.216-0.1 0.218-0.216-0.002-0.125-0.099-0.223-0.217-0.227-0.123 0.003-0.221 0.101-0.216 0.226-0.004 0.117 0.094 0.214 0.217 0.216zM11.961 3.84c0.119-0.002 0.217-0.1 0.217-0.217a0.224 0.224 0 0 0-0.217-0.226c-0.123 0.003-0.221 0.101-0.217 0.226-0.003 0.117 0.094 0.215 0.218 0.217z m-0.243-0.538c0.124-0.003 0.222-0.1 0.226-0.218a0.232 0.232 0 0 0-0.226-0.226c-0.117 0.003-0.216 0.101-0.217 0.226a0.224 0.224 0 0 0 0.218 0.218z m0.591 0a0.244 0.244 0 0 0 0.243-0.244c0-0.133-0.108-0.241-0.243-0.243a0.252 0.252 0 0 0-0.243 0.243c0.004 0.134 0.112 0.242 0.243 0.244z m0.191 0.747c0.131-0.002 0.239-0.11 0.243-0.243-0.004-0.133-0.112-0.241-0.243-0.244a0.245 0.245 0 0 0-0.243 0.244 0.245 0.245 0 0 0 0.243 0.243z m0.365-0.461c0.142-0.003 0.255-0.116 0.252-0.252 0.003-0.142-0.109-0.256-0.251-0.259-0.138 0.003-0.251 0.117-0.251 0.261 0.001 0.136 0.114 0.25 0.251 0.253z m0.486 0.487a0.27 0.27 0 0 0 0.27-0.261c-0.003-0.151-0.123-0.27-0.269-0.269-0.147-0.001-0.266 0.118-0.269 0.269 0.003 0.143 0.122 0.262 0.27 0.261zM12.891 4.544a0.268 0.268 0 0 0 0.27-0.261c-0.003-0.15-0.122-0.27-0.27-0.269a0.259 0.259 0 0 0-0.26 0.269c-0.005 0.144 0.114 0.262 0.26 0.261z"></path></g><g id="SvgjsG1059"><use xlink:href="#SvgjsG1055" transform="translate(0, 0) scale(3)" fill="#0f457b"></use><use xlink:href="#SvgjsG1055" transform="translate(0, 96) scale(3)" fill="#0f457b"></use><use xlink:href="#SvgjsG1056" transform="translate(0, 192) scale(3)" fill="#0f457b"></use><use xlink:href="#SvgjsG1055" transform="translate(0, 288) scale(3)" fill="#0f457b"></use><use xlink:href="#SvgjsG1055" transform="translate(0, 384) scale(3)" fill="#0f457b"></use><use xlink:href="#SvgjsG1056" transform="translate(0, 480) scale(3)" fill="#0f457b"></use><use xlink:href="#SvgjsG1057" transform="translate(0, 576) scale(3)" fill="#0f457b"></use><use xlink:href="#SvgjsG1055" transform="translate(0, 672) scale(3)" fill="#0f457b"></use><use xlink:href="#SvgjsG1057" transform="translate(0, 768) scale(3)" fill="#0f457b"></use><use xlink:href="#SvgjsG1057" transform="translate(0, 864) scale(3)" fill="#0f457b"></use><use xlink:href="#SvgjsG1057" transform="translate(96, 0) scale(3)" fill="#0f457b"></use><use xlink:href="#SvgjsG1058" transform="translate(96, 96) scale(3)" fill="#0f457b"></use><use xlink:href="#SvgjsG1056" transform="translate(96, 192) scale(3)" fill="#0f457b"></use><use xlink:href="#SvgjsG1057" transform="translate(96, 288) scale(3)" fill="#0f457b"></use><use xlink:href="#SvgjsG1056" transform="translate(96, 384) scale(3)" fill="#0f457b"></use><use xlink:href="#SvgjsG1058" transform="translate(96, 480) scale(3)" fill="#0f457b"></use><use xlink:href="#SvgjsG1057" transform="translate(96, 576) scale(3)" fill="#0f457b"></use><use xlink:href="#SvgjsG1056" transform="translate(96, 672) scale(3)" fill="#0f457b"></use><use xlink:href="#SvgjsG1057" transform="translate(96, 768) scale(3)" fill="#0f457b"></use><use xlink:href="#SvgjsG1057" transform="translate(96, 864) scale(3)" fill="#0f457b"></use><use xlink:href="#SvgjsG1058" transform="translate(192, 0) scale(3)" fill="#0f457b"></use><use xlink:href="#SvgjsG1058" transform="translate(192, 96) scale(3)" fill="#0f457b"></use><use xlink:href="#SvgjsG1055" transform="translate(192, 192) scale(3)" fill="#0f457b"></use><use xlink:href="#SvgjsG1058" transform="translate(192, 288) scale(3)" fill="#0f457b"></use><use xlink:href="#SvgjsG1056" transform="translate(192, 384) scale(3)" fill="#0f457b"></use><use xlink:href="#SvgjsG1056" transform="translate(192, 480) scale(3)" fill="#0f457b"></use><use xlink:href="#SvgjsG1057" transform="translate(192, 576) scale(3)" fill="#0f457b"></use><use xlink:href="#SvgjsG1057" transform="translate(192, 672) scale(3)" fill="#0f457b"></use><use xlink:href="#SvgjsG1055" transform="translate(192, 768) scale(3)" fill="#0f457b"></use><use xlink:href="#SvgjsG1058" transform="translate(192, 864) scale(3)" fill="#0f457b"></use><use xlink:href="#SvgjsG1055" transform="translate(288, 0) scale(3)" fill="#0f457b"></use><use xlink:href="#SvgjsG1055" transform="translate(288, 96) scale(3)" fill="#0f457b"></use><use xlink:href="#SvgjsG1055" transform="translate(288, 192) scale(3)" fill="#0f457b"></use><use xlink:href="#SvgjsG1056" transform="translate(288, 288) scale(3)" fill="#0f457b"></use><use xlink:href="#SvgjsG1058" transform="translate(288, 384) scale(3)" fill="#0f457b"></use><use xlink:href="#SvgjsG1056" transform="translate(288, 480) scale(3)" fill="#0f457b"></use><use xlink:href="#SvgjsG1058" transform="translate(288, 576) scale(3)" fill="#0f457b"></use><use xlink:href="#SvgjsG1056" transform="translate(288, 672) scale(3)" fill="#0f457b"></use><use xlink:href="#SvgjsG1056" transform="translate(288, 768) scale(3)" fill="#0f457b"></use><use xlink:href="#SvgjsG1057" transform="translate(288, 864) scale(3)" fill="#0f457b"></use><use xlink:href="#SvgjsG1057" transform="translate(384, 0) scale(3)" fill="#0f457b"></use><use xlink:href="#SvgjsG1055" transform="translate(384, 96) scale(3)" fill="#0f457b"></use><use xlink:href="#SvgjsG1056" transform="translate(384, 192) scale(3)" fill="#0f457b"></use><use xlink:href="#SvgjsG1055" transform="translate(384, 288) scale(3)" fill="#0f457b"></use><use xlink:href="#SvgjsG1055" transform="translate(384, 384) scale(3)" fill="#0f457b"></use><use xlink:href="#SvgjsG1057" transform="translate(384, 480) scale(3)" fill="#0f457b"></use><use xlink:href="#SvgjsG1055" transform="translate(384, 576) scale(3)" fill="#0f457b"></use><use xlink:href="#SvgjsG1056" transform="translate(384, 672) scale(3)" fill="#0f457b"></use><use xlink:href="#SvgjsG1058" transform="translate(384, 768) scale(3)" fill="#0f457b"></use><use xlink:href="#SvgjsG1055" transform="translate(384, 864) scale(3)" fill="#0f457b"></use><use xlink:href="#SvgjsG1057" transform="translate(480, 0) scale(3)" fill="#0f457b"></use><use xlink:href="#SvgjsG1057" transform="translate(480, 96) scale(3)" fill="#0f457b"></use><use xlink:href="#SvgjsG1056" transform="translate(480, 192) scale(3)" fill="#0f457b"></use><use xlink:href="#SvgjsG1055" transform="translate(480, 288) scale(3)" fill="#0f457b"></use><use xlink:href="#SvgjsG1058" transform="translate(480, 384) scale(3)" fill="#0f457b"></use><use xlink:href="#SvgjsG1058" transform="translate(480, 480) scale(3)" fill="#0f457b"></use><use xlink:href="#SvgjsG1056" transform="translate(480, 576) scale(3)" fill="#0f457b"></use><use xlink:href="#SvgjsG1057" transform="translate(480, 672) scale(3)" fill="#0f457b"></use><use xlink:href="#SvgjsG1058" transform="translate(480, 768) scale(3)" fill="#0f457b"></use><use xlink:href="#SvgjsG1055" transform="translate(480, 864) scale(3)" fill="#0f457b"></use><use xlink:href="#SvgjsG1058" transform="translate(576, 0) scale(3)" fill="#0f457b"></use><use xlink:href="#SvgjsG1058" transform="translate(576, 96) scale(3)" fill="#0f457b"></use><use xlink:href="#SvgjsG1058" transform="translate(576, 192) scale(3)" fill="#0f457b"></use><use xlink:href="#SvgjsG1057" transform="translate(576, 288) scale(3)" fill="#0f457b"></use><use xlink:href="#SvgjsG1055" transform="translate(576, 384) scale(3)" fill="#0f457b"></use><use xlink:href="#SvgjsG1055" transform="translate(576, 480) scale(3)" fill="#0f457b"></use><use xlink:href="#SvgjsG1055" transform="translate(576, 576) scale(3)" fill="#0f457b"></use><use xlink:href="#SvgjsG1056" transform="translate(576, 672) scale(3)" fill="#0f457b"></use><use xlink:href="#SvgjsG1055" transform="translate(576, 768) scale(3)" fill="#0f457b"></use><use xlink:href="#SvgjsG1055" transform="translate(576, 864) scale(3)" fill="#0f457b"></use><use xlink:href="#SvgjsG1055" transform="translate(672, 0) scale(3)" fill="#0f457b"></use><use xlink:href="#SvgjsG1057" transform="translate(672, 96) scale(3)" fill="#0f457b"></use><use xlink:href="#SvgjsG1056" transform="translate(672, 192) scale(3)" fill="#0f457b"></use><use xlink:href="#SvgjsG1058" transform="translate(672, 288) scale(3)" fill="#0f457b"></use><use xlink:href="#SvgjsG1057" transform="translate(672, 384) scale(3)" fill="#0f457b"></use><use xlink:href="#SvgjsG1058" transform="translate(672, 480) scale(3)" fill="#0f457b"></use><use xlink:href="#SvgjsG1058" transform="translate(672, 576) scale(3)" fill="#0f457b"></use><use xlink:href="#SvgjsG1057" transform="translate(672, 672) scale(3)" fill="#0f457b"></use><use xlink:href="#SvgjsG1056" transform="translate(672, 768) scale(3)" fill="#0f457b"></use><use xlink:href="#SvgjsG1055" transform="translate(672, 864) scale(3)" fill="#0f457b"></use><use xlink:href="#SvgjsG1057" transform="translate(768, 0) scale(3)" fill="#0f457b"></use><use xlink:href="#SvgjsG1058" transform="translate(768, 96) scale(3)" fill="#0f457b"></use><use xlink:href="#SvgjsG1058" transform="translate(768, 192) scale(3)" fill="#0f457b"></use><use xlink:href="#SvgjsG1056" transform="translate(768, 288) scale(3)" fill="#0f457b"></use><use xlink:href="#SvgjsG1057" transform="translate(768, 384) scale(3)" fill="#0f457b"></use><use xlink:href="#SvgjsG1058" transform="translate(768, 480) scale(3)" fill="#0f457b"></use><use xlink:href="#SvgjsG1058" transform="translate(768, 576) scale(3)" fill="#0f457b"></use><use xlink:href="#SvgjsG1058" transform="translate(768, 672) scale(3)" fill="#0f457b"></use><use xlink:href="#SvgjsG1057" transform="translate(768, 768) scale(3)" fill="#0f457b"></use><use xlink:href="#SvgjsG1056" transform="translate(768, 864) scale(3)" fill="#0f457b"></use><use xlink:href="#SvgjsG1057" transform="translate(864, 0) scale(3)" fill="#0f457b"></use><use xlink:href="#SvgjsG1055" transform="translate(864, 96) scale(3)" fill="#0f457b"></use><use xlink:href="#SvgjsG1056" transform="translate(864, 192) scale(3)" fill="#0f457b"></use><use xlink:href="#SvgjsG1057" transform="translate(864, 288) scale(3)" fill="#0f457b"></use><use xlink:href="#SvgjsG1057" transform="translate(864, 384) scale(3)" fill="#0f457b"></use><use xlink:href="#SvgjsG1057" transform="translate(864, 480) scale(3)" fill="#0f457b"></use><use xlink:href="#SvgjsG1056" transform="translate(864, 576) scale(3)" fill="#0f457b"></use><use xlink:href="#SvgjsG1056" transform="translate(864, 672) scale(3)" fill="#0f457b"></use><use xlink:href="#SvgjsG1056" transform="translate(864, 768) scale(3)" fill="#0f457b"></use><use xlink:href="#SvgjsG1055" transform="translate(864, 864) scale(3)" fill="#0f457b"></use></g></defs></svg>